<svg width="65" height="19" viewBox="0 0 65 19" fill="none" xmlns="http://www.w3.org/2000/svg">
<path d="M0.782603 12V2.99567H2.68635V10.4304H6.5466V12H0.782603ZM15.7312 7.49784C15.7312 8.47975 15.5451 9.31512 15.1728 10.0039C14.8035 10.6927 14.2994 11.2189 13.6604 11.5823C13.0243 11.9428 12.3091 12.1231 11.5148 12.1231C10.7146 12.1231 9.99651 11.9414 9.36046 11.5779C8.72441 11.2145 8.22173 10.6883 7.85241 9.99953C7.48309 9.31072 7.29843 8.47682 7.29843 7.49784C7.29843 6.51592 7.48309 5.68056 7.85241 4.99175C8.22173 4.30294 8.72441 3.77827 9.36046 3.41775C9.99651 3.05429 10.7146 2.87256 11.5148 2.87256C12.3091 2.87256 13.0243 3.05429 13.6604 3.41775C14.2994 3.77827 14.8035 4.30294 15.1728 4.99175C15.5451 5.68056 15.7312 6.51592 15.7312 7.49784ZM13.8011 7.49784C13.8011 6.86179 13.7058 6.3254 13.5153 5.88866C13.3277 5.45193 13.0624 5.12072 12.7195 4.89502C12.3766 4.66933 11.975 4.55648 11.5148 4.55648C11.0546 4.55648 10.6531 4.66933 10.3101 4.89502C9.96719 5.12072 9.70046 5.45193 9.50994 5.88866C9.32235 6.3254 9.22856 6.86179 9.22856 7.49784C9.22856 8.13388 9.32235 8.67027 9.50994 9.10701C9.70046 9.54374 9.96719 9.87495 10.3101 10.1006C10.6531 10.3263 11.0546 10.4392 11.5148 10.4392C11.975 10.4392 12.3766 10.3263 12.7195 10.1006C13.0624 9.87495 13.3277 9.54374 13.5153 9.10701C13.7058 8.67027 13.8011 8.13388 13.8011 7.49784ZM23.1121 5.90625C23.0505 5.69228 22.964 5.50322 22.8527 5.33908C22.7413 5.17201 22.605 5.03132 22.4438 4.91701C22.2855 4.79976 22.1038 4.71036 21.8986 4.64881C21.6963 4.58726 21.4721 4.55648 21.2259 4.55648C20.7657 4.55648 20.3612 4.67079 20.0124 4.89942C19.6666 5.12804 19.3969 5.46072 19.2034 5.89746C19.01 6.33126 18.9133 6.86179 18.9133 7.48904C18.9133 8.1163 19.0085 8.64976 19.199 9.08942C19.3896 9.52909 19.6592 9.8647 20.008 10.0963C20.3568 10.3249 20.7687 10.4392 21.2435 10.4392C21.6744 10.4392 22.0422 10.363 22.347 10.2106C22.6548 10.0552 22.8893 9.83685 23.0505 9.55547C23.2147 9.27408 23.2967 8.9414 23.2967 8.55743L23.6836 8.61458H21.3622V7.18128H25.1301V8.31561C25.1301 9.10701 24.9631 9.78702 24.6289 10.3557C24.2948 10.9214 23.8346 11.3581 23.2484 11.6659C22.6621 11.9707 21.9909 12.1231 21.2347 12.1231C20.3905 12.1231 19.649 11.937 19.01 11.5647C18.371 11.1896 17.8727 10.6576 17.5151 9.96875C17.1605 9.27701 16.9831 8.4563 16.9831 7.50663C16.9831 6.77679 17.0887 6.12608 17.2997 5.55452C17.5137 4.98002 17.8126 4.49346 18.1966 4.09483C18.5806 3.6962 19.0276 3.39283 19.5376 3.18473C20.0476 2.97662 20.6001 2.87256 21.1951 2.87256C21.7051 2.87256 22.18 2.94731 22.6196 3.09679C23.0593 3.24335 23.4491 3.45146 23.7891 3.72112C24.1321 3.99078 24.412 4.31173 24.6289 4.68398C24.8458 5.0533 24.985 5.46072 25.0466 5.90625H23.1121ZM34.8346 7.49784C34.8346 8.47975 34.6485 9.31512 34.2762 10.0039C33.9069 10.6927 33.4028 11.2189 32.7638 11.5823C32.1277 11.9428 31.4126 12.1231 30.6182 12.1231C29.818 12.1231 29.0999 11.9414 28.4639 11.5779C27.8278 11.2145 27.3251 10.6883 26.9558 9.99953C26.5865 9.31072 26.4019 8.47682 26.4019 7.49784C26.4019 6.51592 26.5865 5.68056 26.9558 4.99175C27.3251 4.30294 27.8278 3.77827 28.4639 3.41775C29.0999 3.05429 29.818 2.87256 30.6182 2.87256C31.4126 2.87256 32.1277 3.05429 32.7638 3.41775C33.4028 3.77827 33.9069 4.30294 34.2762 4.99175C34.6485 5.68056 34.8346 6.51592 34.8346 7.49784ZM32.9045 7.49784C32.9045 6.86179 32.8092 6.3254 32.6187 5.88866C32.4311 5.45193 32.1659 5.12072 31.8229 4.89502C31.48 4.66933 31.0784 4.55648 30.6182 4.55648C30.1581 4.55648 29.7565 4.66933 29.4136 4.89502C29.0706 5.12072 28.8039 5.45193 28.6134 5.88866C28.4258 6.3254 28.332 6.86179 28.332 7.49784C28.332 8.13388 28.4258 8.67027 28.6134 9.10701C28.8039 9.54374 29.0706 9.87495 29.4136 10.1006C29.7565 10.3263 30.1581 10.4392 30.6182 10.4392C31.0784 10.4392 31.48 10.3263 31.8229 10.1006C32.1659 9.87495 32.4311 9.54374 32.6187 9.10701C32.8092 8.67027 32.9045 8.13388 32.9045 7.49784ZM42.2155 5.90625C42.1539 5.69228 42.0675 5.50322 41.9561 5.33908C41.8447 5.17201 41.7084 5.03132 41.5472 4.91701C41.3889 4.79976 41.2072 4.71036 41.002 4.64881C40.7998 4.58726 40.5755 4.55648 40.3293 4.55648C39.8691 4.55648 39.4647 4.67079 39.1159 4.89942C38.77 5.12804 38.5003 5.46072 38.3069 5.89746C38.1134 6.33126 38.0167 6.86179 38.0167 7.48904C38.0167 8.1163 38.1119 8.64976 38.3025 9.08942C38.493 9.52909 38.7627 9.8647 39.1115 10.0963C39.4603 10.3249 39.8721 10.4392 40.3469 10.4392C40.7778 10.4392 41.1456 10.363 41.4505 10.2106C41.7582 10.0552 41.9927 9.83685 42.1539 9.55547C42.3181 9.27408 42.4001 8.9414 42.4001 8.55743L42.787 8.61458H40.4656V7.18128H44.2335V8.31561C44.2335 9.10701 44.0665 9.78702 43.7323 10.3557C43.3982 10.9214 42.938 11.3581 42.3518 11.6659C41.7656 11.9707 41.0943 12.1231 40.3381 12.1231C39.494 12.1231 38.7524 11.937 38.1134 11.5647C37.4744 11.1896 36.9761 10.6576 36.6186 9.96875C36.2639 9.27701 36.0866 8.4563 36.0866 7.50663C36.0866 6.77679 36.1921 6.12608 36.4031 5.55452C36.6171 4.98002 36.9161 4.49346 37.3 4.09483C37.684 3.6962 38.131 3.39283 38.641 3.18473C39.151 2.97662 39.7035 2.87256 40.2985 2.87256C40.8086 2.87256 41.2834 2.94731 41.7231 3.09679C42.1627 3.24335 42.5526 3.45146 42.8926 3.72112C43.2355 3.99078 43.5154 4.31173 43.7323 4.68398C43.9492 5.0533 44.0885 5.46072 44.15 5.90625H42.2155ZM47.5673 2.99567V12H45.6636V2.99567H47.5673ZM49.1336 12V2.99567H55.0955V4.56527H51.0374V6.71084H54.6998V8.28044H51.0374V12H49.1336ZM55.8484 2.99567H57.9808L60.034 6.87351H60.1219L62.1752 2.99567H64.3075L61.0232 8.81683V12H59.1327V8.81683L55.8484 2.99567Z" fill="#5463FF"/>
<path d="M9.28571 18.0481C17.4107 15.3398 39.7738 10.8517 64.2262 14.566" stroke="#5463FF" stroke-width="0.773809" stroke-linecap="round" stroke-linejoin="round"/>
</svg>
